<svg width="14" height="14" viewBox="0 0 14 14" fill="none" xmlns="http://www.w3.org/2000/svg">
<path d="M7 0.5C3.41594 0.5 0.5 3.41594 0.5 7C0.5 10.5841 3.41594 13.5 7 13.5C10.5841 13.5 13.5 10.5841 13.5 7C13.5 3.41594 10.5841 0.5 7 0.5ZM8 10H6C5.86739 10 5.74021 9.94732 5.64645 9.85355C5.55268 9.75979 5.5 9.63261 5.5 9.5C5.5 9.36739 5.55268 9.24021 5.64645 9.14645C5.74021 9.05268 5.86739 9 6 9H8C8.13261 9 8.25979 9.05268 8.35355 9.14645C8.44732 9.24021 8.5 9.36739 8.5 9.5C8.5 9.63261 8.44732 9.75979 8.35355 9.85355C8.25979 9.94732 8.13261 10 8 10ZM9.5 8H4.5C4.36739 8 4.24021 7.94732 4.14645 7.85355C4.05268 7.75979 4 7.63261 4 7.5C4 7.36739 4.05268 7.24021 4.14645 7.14645C4.24021 7.05268 4.36739 7 4.5 7H9.5C9.63261 7 9.75979 7.05268 9.85355 7.14645C9.94732 7.24021 10 7.36739 10 7.5C10 7.63261 9.94732 7.75979 9.85355 7.85355C9.75979 7.94732 9.63261 8 9.5 8ZM10.5 6H3.5C3.36739 6 3.24021 5.94732 3.14645 5.85355C3.05268 5.75979 3 5.63261 3 5.5C3 5.36739 3.05268 5.24021 3.14645 5.14645C3.24021 5.05268 3.36739 5 3.5 5H10.5C10.6326 5 10.7598 5.05268 10.8536 5.14645C10.9473 5.24021 11 5.36739 11 5.5C11 5.63261 10.9473 5.75979 10.8536 5.85355C10.7598 5.94732 10.6326 6 10.5 6Z" fill="#1F2937"/>
</svg>
